<svg preserveAspectRatio="none" overflow="visible" style="display: block;" width="21.5" height="18.5" viewBox="0 0 21.5 18.5" fill="none" xmlns="http://www.w3.org/2000/svg">
<g id="Group">
<path id="Vector" d="M1.25 3.25C1.25 2.71957 1.46071 2.21086 1.83579 1.83579C2.21086 1.46071 2.71957 1.25 3.25 1.25H9.25C9.78043 1.25 10.2891 1.46071 10.6642 1.83579C11.0393 2.21086 11.25 2.71957 11.25 3.25V15.25C11.25 15.7804 11.0393 16.2891 10.6642 16.6642C10.2891 17.0393 9.78043 17.25 9.25 17.25H3.25C2.71957 17.25 2.21086 17.0393 1.83579 16.6642C1.46071 16.2891 1.25 15.7804 1.25 15.25V3.25Z" stroke="white" stroke-width="2.5" stroke-linecap="round" stroke-linejoin="round"/>
<path id="Vector_2" d="M6.25 9.25H14.25" stroke="white" stroke-width="2.5" stroke-linecap="round" stroke-linejoin="round"/>
<path id="Vector_3" d="M15.1287 11.3713C14.5661 10.8087 14.25 10.0456 14.25 9.25C14.25 8.45435 14.5661 7.69129 15.1287 7.12868C15.6913 6.56607 16.4544 6.25 17.25 6.25C18.0456 6.25 18.8087 6.56607 19.3713 7.12868C19.9339 7.69129 20.25 8.45435 20.25 9.25C20.25 10.0456 19.9339 10.8087 19.3713 11.3713C18.8087 11.9339 18.0456 12.25 17.25 12.25C16.4544 12.25 15.6913 11.9339 15.1287 11.3713Z" stroke="white" stroke-width="2.5" stroke-linecap="round" stroke-linejoin="round"/>
</g>
</svg>
